<?xml version="1.0" standalone="no"?>
<!DOCTYPE svg PUBLIC "-//W3C//DTD SVG 20010904//EN"
 "http://www.w3.org/TR/2001/REC-SVG-20010904/DTD/svg10.dtd">
<svg version="1.0" xmlns="http://www.w3.org/2000/svg"
 width="96.000000pt" height="96.000000pt" viewBox="0 0 96.000000 96.000000"
 preserveAspectRatio="xMidYMid meet">
<metadata>
Created by potrace 1.14, written by Peter Selinger 2001-2017
</metadata>
<g transform="translate(0.000000,96.000000) scale(0.100000,-0.100000)"
fill="#000000" stroke="none">
<path d="M387 870 c-128 -33 -237 -132 -285 -260 -31 -86 -26 -205 14 -290 45
-93 102 -153 187 -195 206 -102 440 -18 540 192 29 62 32 77 32 163 0 86 -3
101 -31 160 -69 144 -191 229 -340 236 -44 2 -96 -1 -117 -6z m135 -70 c26
-20 60 -83 72 -132 l6 -28 -120 0 -120 0 6 28 c20 80 73 152 114 152 10 0 29
-9 42 -20z m-186 -38 c-8 -16 -20 -50 -27 -75 l-11 -47 -60 0 -59 0 23 32 c30
43 48 61 94 92 49 33 58 33 40 -2z m335 -4 c52 -37 58 -43 88 -85 l22 -33 -59
0 -60 0 -11 47 c-7 25 -19 59 -27 75 -19 36 -7 35 47 -4z m-386 -278 l0 -100
-67 0 -67 0 -6 53 c-4 28 -4 66 -2 82 3 17 6 38 6 48 1 14 11 17 69 17 l67 0
0 -100z m327 82 c7 -25 7 -138 1 -162 -5 -19 -14 -20 -134 -20 l-128 0 -7 45
c-3 25 -4 69 0 97 3 29 6 54 6 56 0 1 58 2 129 2 117 0 129 -2 133 -18z m203
-32 c4 -28 4 -73 0 -100 l-7 -50 -66 0 -67 0 0 100 0 100 67 0 66 0 7 -50z
m-506 -257 c7 -25 19 -59 27 -75 19 -36 7 -35 -47 4 -52 37 -58 43 -88 86
l-22 32 59 0 60 0 11 -47z m291 41 c0 -4 -8 -29 -17 -57 -21 -58 -71 -117
-100 -117 -44 0 -97 70 -117 153 l-6 27 120 0 c66 0 120 -3 120 -6z m151 -36
c-28 -38 -114 -108 -133 -108 -5 0 -2 13 6 28 8 16 20 50 27 75 l11 47 60 0
60 0 -31 -42z"/>
</g>
</svg>
